<?xml version="1.0" encoding="utf-8"?>
<!-- Generator: Adobe Illustrator 16.0.0, SVG Export Plug-In . SVG Version: 6.00 Build 0)  -->
<!DOCTYPE svg PUBLIC "-//W3C//DTD SVG 1.1//EN" "http://www.w3.org/Graphics/SVG/1.1/DTD/svg11.dtd">
<svg version="1.1" xmlns="http://www.w3.org/2000/svg" xmlns:xlink="http://www.w3.org/1999/xlink" x="0px" y="0px"
	 width="502.475px" height="800px" viewBox="0 0 502.475 800" enable-background="new 0 0 502.475 800" xml:space="preserve">
<g id="Layer_1">
</g>
<g id="Layer_2">
	<g>
		<path d="M253.268,732.766c-1.32,0-2.563-0.679-3.273-1.819L66.161,435.46c-0.914-1.468-0.739-3.363,0.428-4.639
			c1.164-1.275,3.034-1.62,4.581-0.844l62.702,31.571c1.901,0.958,2.668,3.275,1.711,5.179c-0.957,1.902-3.27,2.668-5.181,1.711
			l-50.441-25.397l171.938,276.367L426.951,87.93L140.78,517.128c-1.182,1.773-3.575,2.25-5.348,1.07
			c-1.773-1.183-2.253-3.578-1.07-5.349l299.53-449.232c1.051-1.577,3.092-2.158,4.813-1.367c1.722,0.789,2.618,2.71,2.111,4.537
			L256.984,729.938c-0.41,1.477-1.653,2.569-3.168,2.787C253.635,732.753,253.449,732.766,253.268,732.766z"/>
	</g>
	<g>
		<path d="M128.518,505.05c-0.583,0-1.176-0.132-1.733-0.413c-1.899-0.957-2.665-3.276-1.709-5.18L251.109,250.13
			c0.655-1.3,1.987-1.13,3.443-1.13c0.003,0,0.009,0,0.01,0c1.463,0,2.797-0.158,3.446,1.151l18.326,36.416
			c0.946,1.909,0.168,3.975-1.741,4.923c-1.896,0.944-4.218,0.046-5.169-1.864l-14.896-30.065L131.964,502.957
			C131.287,504.304,129.929,505.05,128.518,505.05z"/>
	</g>
	<g>
		<path d="M331.225,406.543c-1.401,0-2.756-0.77-3.438-2.104l-44.934-87.894c-0.969-1.896-0.219-4.219,1.68-5.188
			c1.9-0.97,4.221-0.217,5.189,1.678l44.934,87.893c0.969,1.897,0.218,4.22-1.68,5.189
			C332.414,406.406,331.813,406.543,331.225,406.543z"/>
	</g>
	<g>
		<path d="M437.1,622.396c-0.59,0-1.182-0.135-1.734-0.41l-122.167-61.512c-1.899-0.958-2.665-3.276-1.71-5.18
			c0.957-1.902,3.272-2.667,5.182-1.71l111.832,56.309l-84.618-170.427c-0.947-1.908-0.169-4.223,1.739-5.17
			c1.901-0.938,4.221-0.17,5.17,1.739l89.763,180.79c0.738,1.486,0.441,3.278-0.736,4.448
			C439.079,622.011,438.098,622.396,437.1,622.396z"/>
	</g>
	<g>
		<path d="M290.682,548.678c-0.582,0-1.175-0.133-1.733-0.412l-118.49-59.66c-1.9-0.959-2.667-3.276-1.709-5.182
			c0.958-1.901,3.273-2.665,5.179-1.709l118.492,59.66c1.899,0.957,2.665,3.276,1.709,5.18
			C293.451,547.901,292.093,548.678,290.682,548.678z"/>
	</g>
	<g>
		<path d="M69.434,622.396c-0.661,0-1.328-0.167-1.936-0.521c-1.764-1.028-2.424-3.247-1.508-5.071l45.514-90.394
			c0.956-1.901,3.27-2.669,5.18-1.71c1.9,0.958,2.667,3.275,1.709,5.18l-16.759,33.286l16.2-24.356
			c1.182-1.776,3.578-2.253,5.349-1.075c1.771,1.179,2.254,3.573,1.073,5.347l-51.609,77.595
			C71.905,621.789,70.684,622.396,69.434,622.396z"/>
	</g>
</g>
</svg>
